<?xml version="1.0" encoding="UTF-8" standalone="no"?>
<!-- Created with Inkscape (http://www.inkscape.org/) -->

<svg
   width="210mm"
   height="297mm"
   viewBox="0 0 210 297"
   version="1.1"
   id="svg5"
   xml:space="preserve"
   inkscape:version="1.2.2 (732a01da63, 2022-12-09)"
   sodipodi:docname="liberam_blue_gradient.svg"
   xmlns:inkscape="http://www.inkscape.org/namespaces/inkscape"
   xmlns:sodipodi="http://sodipodi.sourceforge.net/DTD/sodipodi-0.dtd"
   xmlns="http://www.w3.org/2000/svg"
   xmlns:svg="http://www.w3.org/2000/svg"><sodipodi:namedview
     id="namedview7"
     pagecolor="#ffffff"
     bordercolor="#000000"
     borderopacity="0.25"
     inkscape:showpageshadow="2"
     inkscape:pageopacity="0.0"
     inkscape:pagecheckerboard="0"
     inkscape:deskcolor="#d1d1d1"
     inkscape:document-units="mm"
     showgrid="false"
     inkscape:zoom="0.35355339"
     inkscape:cx="1595.2329"
     inkscape:cy="138.59293"
     inkscape:window-width="1920"
     inkscape:window-height="1009"
     inkscape:window-x="1912"
     inkscape:window-y="-8"
     inkscape:window-maximized="1"
     inkscape:current-layer="layer1" /><defs
     id="defs2"><style
       id="style9">.cls-1{fill:url(#Degradado_sin_nombre_31);}.cls-2{fill:#1a63a8;}.cls-3{fill:#75b0e0;}.cls-4{fill:#4486c6;}</style><linearGradient
       id="Degradado_sin_nombre_31"
       x1="-6.54"
       y1="35.2"
       x2="55.07"
       y2="35.2"
       gradientUnits="userSpaceOnUse"
       gradientTransform="matrix(1.8484587,0,0,1.8484587,55.704127,78.219042)"><stop
         offset="0.09"
         stop-color="#1a63a8"
         id="stop11" /><stop
         offset="0.47"
         stop-color="#75b0e0"
         id="stop13" /><stop
         offset="0.93"
         stop-color="#4486c6"
         id="stop15" /></linearGradient><style
       id="style282">.cls-1{fill:url(#Degradado_sin_nombre_31);}.cls-2{fill:#1a63a8;}.cls-3{fill:#75b0e0;}.cls-4{fill:#4486c6;}</style><linearGradient
       id="Degradado_sin_nombre_31-4"
       y1="31.22"
       x2="62.44"
       y2="31.22"
       gradientUnits="userSpaceOnUse"><stop
         offset="0.09"
         stop-color="#1a63a8"
         id="stop284" /><stop
         offset="0.47"
         stop-color="#75b0e0"
         id="stop286" /><stop
         offset="0.93"
         stop-color="#4486c6"
         id="stop288" /></linearGradient></defs><g
     inkscape:label="Capa 1"
     inkscape:groupmode="layer"
     id="layer1"><path
       class="cls-1"
       d="m 121.36136,208.35056 h -1.99633 A 31.238952,31.238952 0 0 1 90.824873,183.35937 h -4.34391 A 31.645613,31.645613 0 0 1 55.704125,151.76921 V 78.219042 h 6.210818 a 40.666091,40.666091 0 0 1 40.666127,40.666138 v 52.07106 h 32.23709 a 31.165013,31.165013 0 0 1 31.12803,31.10951 v 6.19238 z m -17.72669,-24.99119 a 18.798825,18.798825 0 0 0 17.43096,12.56954 h 31.42382 A 18.761856,18.761856 0 0 0 134.81816,183.39633 Z M 90.159423,177.14855 Z M 68.125763,91.324642 v 60.444568 a 19.205486,19.205486 0 0 0 19.11307,19.18703 h 2.92059 V 118.88518 A 28.281418,28.281418 0 0 0 68.125763,91.324642 Z"
       id="path20"
       style="fill:url(#Degradado_sin_nombre_31);stroke-width:1.84846" /></g><style
     type="text/css"
     id="style243">
	.st0{fill:#FFFFFF;}
</style></svg>
