<?xml version="1.0" encoding="UTF-8"?>
<svg width="851px" height="145px" viewBox="0 0 851 145" version="1.1" xmlns="http://www.w3.org/2000/svg" xmlns:xlink="http://www.w3.org/1999/xlink">
    <title>Branding/Regular/BricsCAD Pro</title>
    <g id="Branding/Regular/BricsCAD-Pro" stroke="none" stroke-width="1" fill="none" fill-rule="evenodd">
        <g id="Group">
            <g id="Group-2">
                <g id="Group" transform="translate(210.000000, 32.000000)" fill="#222222">
                    <path d="M28.0332031,77 C36.2688802,77 42.6328125,75.2503255 47.125,71.7509766 C51.6171875,68.2516276 53.8632812,63.1002604 53.8632812,56.296875 C53.8632812,52.3580729 52.7972005,48.891276 50.6650391,45.8964844 C48.5328776,42.9016927 45.3346354,40.9485677 41.0703125,40.0371094 C44.390625,38.735026 46.9215495,36.7900391 48.6630859,34.2021484 C50.4046224,31.6142578 51.2753906,28.6764323 51.2753906,25.3886719 C51.2753906,18.9108073 48.9316406,14.0442708 44.2441406,10.7890625 C39.5566406,7.53385417 33.0299479,5.90625 24.6640625,5.90625 L24.6640625,5.90625 L0.640625,5.90625 L0.640625,77 L28.0332031,77 Z M25.1523438,35.6914062 L14.8984375,35.6914062 L14.8984375,16.8925781 L24.6640625,16.8925781 C28.765625,16.8925781 31.8499349,17.6738281 33.9169922,19.2363281 C35.9840495,20.7988281 37.0175781,23.2239583 37.0175781,26.5117188 C37.0175781,29.5065104 35.9921875,31.7851562 33.9414062,33.3476562 C31.890625,34.9101562 28.9609375,35.6914062 25.1523438,35.6914062 L25.1523438,35.6914062 Z M28.0332031,66.0625 L14.8984375,66.0625 L14.8984375,45.5546875 L29.1074219,45.5546875 C32.7532552,45.5546875 35.422526,46.4742839 37.1152344,48.3134766 C38.8079427,50.1526693 39.6542969,52.8138021 39.6542969,56.296875 C39.6542969,59.5195312 38.6614583,61.9527995 36.6757812,63.5966797 C34.6901042,65.2405599 31.8092448,66.0625 28.0332031,66.0625 L28.0332031,66.0625 Z M77.8378906,77 L77.8378906,41.3066406 C78.5540365,39.7115885 79.5957031,38.4746094 80.9628906,37.5957031 C82.3300781,36.7167969 84.0716146,36.2773438 86.1875,36.2773438 L86.1875,36.2773438 L91.4121094,36.4238281 L92.9257812,23.7773438 C92.3072917,23.6145833 91.6969401,23.476237 91.0947266,23.3623047 C90.492513,23.2483724 89.8333333,23.1914062 89.1171875,23.1914062 C86.5455729,23.1914062 84.2750651,23.9645182 82.3056641,25.5107422 C80.336263,27.0569661 78.7330729,29.2135417 77.4960938,31.9804688 L77.4960938,31.9804688 L76.8613281,24.1679688 L63.6289062,24.1679688 L63.6289062,77 L77.8378906,77 Z M113.628906,11.5214844 L113.628906,0.828125 L99.3710938,0.828125 L99.3710938,11.5214844 L113.628906,11.5214844 Z M113.628906,77 L113.628906,24.1679688 L99.3710938,24.1679688 L99.3710938,77 L113.628906,77 Z M147.515625,78.0253906 C153.667969,78.0253906 158.819336,76.226888 162.969727,72.6298828 C167.120117,69.0328776 169.130208,64.5651042 169,59.2265625 L169,59.2265625 L168.853516,58.9335938 L155.914062,58.9335938 C155.914062,61.4075521 155.149089,63.3850911 153.619141,64.8662109 C152.089193,66.3473307 150.054688,67.0878906 147.515625,67.0878906 C143.707031,67.0878906 141.029622,65.6474609 139.483398,62.7666016 C137.937174,59.8857422 137.164062,56.0852865 137.164062,51.3652344 L137.164062,51.3652344 L137.164062,49.9003906 C137.164062,45.2779948 137.937174,41.5019531 139.483398,38.5722656 C141.029622,35.6425781 143.690755,34.1777344 147.466797,34.1777344 C150.103516,34.1777344 152.170573,35.0810547 153.667969,36.8876953 C155.165365,38.6943359 155.914062,40.9648438 155.914062,43.6992188 L155.914062,43.6992188 L168.902344,43.6992188 L169,43.40625 C169.130208,37.3515625 167.201497,32.46875 163.213867,28.7578125 C159.226237,25.046875 153.977214,23.1914062 147.466797,23.1914062 C139.589193,23.1914062 133.526367,25.6979167 129.27832,30.7109375 C125.030273,35.7239583 122.90625,42.1204427 122.90625,49.9003906 L122.90625,49.9003906 L122.90625,51.3652344 C122.90625,59.1777344 125.038411,65.5742188 129.302734,70.5546875 C133.567057,75.5351562 139.638021,78.0253906 147.515625,78.0253906 Z M197.271484,78.0253906 C203.944661,78.0253906 209.315755,76.5198568 213.384766,73.5087891 C217.453776,70.4977214 219.488281,66.6158854 219.488281,61.8632812 C219.488281,57.4361979 217.909505,53.961263 214.751953,51.4384766 C211.594401,48.9156901 206.760417,47.0032552 200.25,45.7011719 C196.018229,44.8873698 193.210612,43.9596354 191.827148,42.9179688 C190.443685,41.8763021 189.751953,40.5416667 189.751953,38.9140625 C189.751953,37.2213542 190.411133,35.8134766 191.729492,34.6904297 C193.047852,33.5673828 194.86263,33.0058594 197.173828,33.0058594 C199.777995,33.0058594 201.755534,33.6731771 203.106445,35.0078125 C204.457357,36.3424479 205.132812,38.0677083 205.132812,40.1835938 L205.132812,40.1835938 L218.902344,40.1835938 L219,39.890625 C219.16276,35.0729167 217.250326,31.0852865 213.262695,27.9277344 C209.275065,24.7701823 203.912109,23.1914062 197.173828,23.1914062 C190.761068,23.1914062 185.642253,24.7783203 181.817383,27.9521484 C177.992513,31.1259766 176.080078,34.9915365 176.080078,39.5488281 C176.080078,43.8457031 177.666992,47.2392578 180.84082,49.7294922 C184.014648,52.2197266 188.726562,54.0996094 194.976562,55.3691406 C199.078125,56.2480469 201.885742,57.2571615 203.399414,58.3964844 C204.913086,59.5358073 205.669922,60.8867188 205.669922,62.4492188 C205.669922,64.2395833 204.97819,65.655599 203.594727,66.6972656 C202.211263,67.7389323 200.201172,68.2597656 197.564453,68.2597656 C194.732422,68.2597656 192.4375,67.625 190.679687,66.3554688 C188.921875,65.0859375 187.994141,63.0351562 187.896484,60.203125 L187.896484,60.203125 L174.859375,60.203125 L174.761719,60.4960938 C174.566406,65.0533854 176.511393,69.1142578 180.59668,72.6787109 C184.681966,76.2431641 190.240234,78.0253906 197.271484,78.0253906 Z M256.597656,78.0253906 C265.126302,78.0253906 271.791341,75.7874349 276.592773,71.3115234 C281.394206,66.835612 283.729818,60.7727865 283.599609,53.1230469 L283.599609,53.1230469 L283.501953,52.8300781 L269.683594,52.8300781 C269.683594,57.5501302 268.617513,61.1064453 266.485352,63.4990234 C264.35319,65.8916016 261.057292,67.0878906 256.597656,67.0878906 C252.105469,67.0878906 248.541016,65.3544922 245.904297,61.8876953 C243.267578,58.4208984 241.949219,53.969401 241.949219,48.5332031 L241.949219,48.5332031 L241.949219,34.3242188 C241.949219,28.953125 243.202474,24.5341797 245.708984,21.0673828 C248.215495,17.6005859 251.600911,15.8671875 255.865234,15.8671875 C260.617839,15.8671875 264.117188,17.1123047 266.363281,19.6025391 C268.609375,22.0927734 269.732422,25.6816406 269.732422,30.3691406 L269.732422,30.3691406 L283.599609,30.3691406 L283.697266,30.0761719 C283.827474,22.296224 281.41862,16.1520182 276.470703,11.6435547 C271.522786,7.13509115 264.654297,4.88085938 255.865234,4.88085938 C247.531901,4.88085938 240.761068,7.64778646 235.552734,13.1816406 C230.344401,18.7154948 227.740234,25.7955729 227.740234,34.421875 L227.740234,34.421875 L227.740234,48.5332031 C227.740234,57.1920573 230.409505,64.2721354 235.748047,69.7734375 C241.086589,75.2747396 248.036458,78.0253906 256.597656,78.0253906 Z M302.105469,77 L306.939453,61.6679688 L331.890625,61.6679688 L336.724609,77 L351.128906,77 L326.763672,5.90625 L312.164062,5.90625 L287.701172,77 L302.105469,77 Z M328.375,50.4863281 L310.455078,50.4863281 L319.292969,22.5566406 L319.585938,22.5566406 L328.375,50.4863281 Z M382.183594,77 C390.875,77 398.036458,74.2412109 403.667969,68.7236328 C409.299479,63.2060547 412.115234,56.0852865 412.115234,47.3613281 L412.115234,47.3613281 L412.115234,35.59375 C412.115234,26.9023438 409.299479,19.7815755 403.667969,14.2314453 C398.036458,8.6813151 390.875,5.90625 382.183594,5.90625 L382.183594,5.90625 L357.769531,5.90625 L357.769531,77 L382.183594,77 Z M381.451172,66.0625 L372.027344,66.0625 L372.027344,16.8925781 L381.451172,16.8925781 C386.561849,16.8925781 390.565755,18.6178385 393.462891,22.0683594 C396.360026,25.5188802 397.808594,29.9947917 397.808594,35.4960938 L397.808594,35.4960938 L397.808594,47.3613281 C397.808594,52.9277344 396.360026,57.4361979 393.462891,60.8867188 C390.565755,64.3372396 386.561849,66.0625 381.451172,66.0625 L381.451172,66.0625 Z" id="BricsCAD" fill-rule="nonzero"></path>
                    <g id="Group-11" transform="translate(422.671875, 3.603516)">
                        <path d="M0,13.1455264 C0,9.49869401 1.21456299,6.4241271 3.64442419,3.92327626 C6.07428538,1.42242542 9.02540878,0.172 12.5,0.172 C15.9620927,0.172 18.9117457,1.42242542 21.3467533,3.92327626 C23.7824962,6.4241271 25,9.49869401 25,13.1455264 C25,16.8046889 23.7795553,19.8908607 21.3379308,22.4033164 C18.8963063,24.9157721 15.9503294,26.172 12.5,26.172 C9.02540878,26.172 6.07428538,24.9157721 3.64442419,22.4033164 C1.21456299,19.8908607 0,16.8046889 0,13.1455264 Z M2.14827667,13.1455264 C2.14827667,16.202686 3.1540407,18.7760673 5.16703917,20.8663956 C7.17930244,22.9559987 9.62460299,24.0011628 12.5,24.0011628 C15.3636337,24.0011628 17.8023174,22.9559987 19.8145806,20.8663956 C21.8275791,18.7760673 22.8340783,16.202686 22.8340783,13.1455264 C22.8340783,10.100697 21.8275791,7.53892052 19.8145806,5.46019706 C17.8023174,3.3814736 15.3636337,2.34283717 12.5,2.34283717 C9.61283967,2.34283717 7.16533349,3.3814736 5.15821668,5.46019706 C3.15109987,7.53892052 2.14827667,10.100697 2.14827667,13.1455264 Z M9.96500412,14.4663064 L9.96500412,20.3187905 L7.30575815,20.3187905 L7.30575815,5.55593729 L12.2537054,5.55593729 C14.0255558,5.55593729 15.4217151,5.94977778 16.4436537,6.73673345 C17.4648571,7.52441443 17.9750912,8.64791151 17.9750912,10.1064994 C17.9750912,10.7781316 17.8052582,11.3656285 17.4648571,11.8697153 C17.1244559,12.3730768 16.62525,12.8046331 15.9687096,13.163659 C16.6487766,13.5103547 17.1450418,13.9999354 17.4560346,14.6309505 C17.7670274,15.2619657 17.9221562,16.0061284 17.9221562,16.8627133 L17.9221562,17.835347 C17.9221562,18.3096963 17.942742,18.7354502 17.9839137,19.1118834 C18.0250853,19.4883166 18.1044877,19.7980217 18.2213857,20.0409988 L18.2213857,20.3187905 L15.4930302,20.3187905 C15.3871603,20.0758134 15.3231973,19.7196888 15.2989354,19.2511419 C15.2754088,18.7818697 15.2643807,18.3046192 15.2643807,17.8179397 L15.2643807,16.8801206 C15.2643807,16.057625 15.067345,15.4505449 14.6740089,15.0567044 C14.2814081,14.6628639 13.6388366,14.4663064 12.7462946,14.4663064 L9.96500412,14.4663064 Z M9.96500412,12.1388034 L12.3411952,12.1388034 C13.1749206,12.1388034 13.8821903,11.9647302 14.4630044,11.6173092 C15.0438184,11.2698882 15.3342254,10.7723292 15.3342254,10.1239067 C15.3342254,9.28980623 15.1055758,8.70521059 14.6482767,8.36939448 C14.1902423,8.03357837 13.3918068,7.86603297 12.2537054,7.86603297 L9.96500412,7.86603297 L9.96500412,12.1388034 L9.96500412,12.1388034 Z" id="Clip-10"></path>
                    </g>
                </g>
                <g id="Branding/BricsCAD-Icon">
                    <polygon id="Combined-Shape" fill="#4093FF" points="0 145 145 145 145 0 0 0"></polygon>
                    <path d="M80.1410971,36.25 L91.5789474,53.0006251 L56.5971911,107.796053 L34.3421053,107.796053 L69.6324733,53.0006251 L57.8860113,36.25 L80.1410971,36.25 Z M100.020052,74.3249799 L111.354438,90.8741238 L100.020052,107.713138 L77.9662804,107.713138 L89.6064867,90.8741238 L77.9662804,74.3249799 L100.020052,74.3249799 Z" id="Combined-Shape" fill="#FFFFFF"></path>
                </g>
            </g>
            <path d="M698.136719,110 L698.136719,80.4589844 L716.789062,80.4589844 C724.24349,80.4589844 730.013346,78.5709635 734.098633,74.7949219 C738.183919,71.0188802 740.226562,65.9733073 740.226562,59.6582031 C740.226562,53.4082031 738.183919,48.3870443 734.098633,44.5947266 C730.013346,40.8024089 724.24349,38.90625 716.789062,38.90625 L716.789062,38.90625 L692.326172,38.90625 L692.326172,110 L698.136719,110 Z M716.789062,75.4785156 L698.136719,75.4785156 L698.136719,43.8867188 L716.789062,43.8867188 C722.68099,43.8867188 727.091797,45.3922526 730.021484,48.4033203 C732.951172,51.414388 734.416016,55.1985677 734.416016,59.7558594 C734.416016,64.280599 732.943034,68.0322266 729.99707,71.0107422 C727.051107,73.9892578 722.648438,75.4785156 716.789062,75.4785156 L716.789062,75.4785156 Z M758.439453,110 L758.439453,73.5253906 C759.448568,69.9121094 761.133138,67.0719401 763.493164,65.0048828 C765.85319,62.9378255 768.872396,61.9042969 772.550781,61.9042969 L772.550781,61.9042969 L776.896484,62.1972656 L777.677734,56.7285156 C777.222005,56.5983073 776.644206,56.476237 775.944336,56.3623047 C775.244466,56.2483724 774.520182,56.1914062 773.771484,56.1914062 C770.223307,56.1914062 767.163411,57.1028646 764.591797,58.9257812 C762.020182,60.7486979 759.969401,63.2877604 758.439453,66.5429688 L758.439453,66.5429688 L758.439453,65.9570312 L757.707031,57.1679688 L752.580078,57.1679688 L752.580078,110 L758.439453,110 Z M805.802734,111.025391 C812.833984,111.025391 818.473633,108.543294 822.72168,103.579102 C826.969727,98.6149089 829.09375,92.2265625 829.09375,84.4140625 L829.09375,84.4140625 L829.09375,82.8027344 C829.09375,75.0227865 826.961589,68.6425781 822.697266,63.6621094 C818.432943,58.6816406 812.76888,56.1914062 805.705078,56.1914062 C798.673828,56.1914062 793.026042,58.6816406 788.761719,63.6621094 C784.497396,68.6425781 782.365234,75.0227865 782.365234,82.8027344 L782.365234,82.8027344 L782.365234,84.4140625 C782.365234,92.2265625 784.497396,98.6149089 788.761719,103.579102 C793.026042,108.543294 798.70638,111.025391 805.802734,111.025391 Z M805.802734,106.09375 C800.26888,106.09375 795.955729,104.010417 792.863281,99.84375 C789.770833,95.6770833 788.224609,90.5338542 788.224609,84.4140625 L788.224609,84.4140625 L788.224609,82.8027344 C788.224609,76.780599 789.770833,71.6699219 792.863281,67.4707031 C795.955729,63.2714844 800.236328,61.171875 805.705078,61.171875 C811.173828,61.171875 815.470703,63.2714844 818.595703,67.4707031 C821.720703,71.6699219 823.283203,76.780599 823.283203,82.8027344 L823.283203,82.8027344 L823.283203,84.4140625 C823.283203,90.5338542 821.728841,95.6770833 818.620117,99.84375 C815.511393,104.010417 811.238932,106.09375 805.802734,106.09375 Z" id="Pro" fill="#222222" fill-rule="nonzero"></path>
        </g>
    </g>
</svg>