<?xml version="1.0" encoding="utf-8"?>
<!-- Generator: Adobe Illustrator 23.0.4, SVG Export Plug-In . SVG Version: 6.00 Build 0)  -->
<svg version="1.1" id="Layer_1" xmlns="http://www.w3.org/2000/svg" xmlns:xlink="http://www.w3.org/1999/xlink" x="0px" y="0px"
	 viewBox="0 0 263 300" style="enable-background:new 0 0 263 300;" xml:space="preserve">
<style type="text/css">
	.st0{fill:#FFFFFF;}
	.st1{fill:url(#SVGID_1_);}
</style>
<g>
	<path class="st0" d="M122.1,298l-104-59.2c-5-2.9-9.1-7-11.9-11.8s-4.4-10.4-4.4-16.2L1.7,99.6C1.6,88,7.2,76.2,17.2,70.4
		L132.5,2.5l114.3,67.8c1.9,1.1,3.7,2.5,5.2,4l-110.7,62c-11.9,6.7-19.3,19.3-19.3,32.9L122.1,298L122.1,298z"/>
</g>
<g>
	
		<linearGradient id="SVGID_1_" gradientUnits="userSpaceOnUse" x1="119.0914" y1="25.8209" x2="300.9396" y2="199.9418" gradientTransform="matrix(1 0 0 -1 0 300)">
		<stop  offset="0" style="stop-color:#00BDD4"/>
		<stop  offset="0.9955" style="stop-color:#00FFE0"/>
	</linearGradient>
	<path class="st1" d="M262.2,210.8c0,5.8-1.6,11.4-4.4,16.2c-2.8,4.8-6.9,8.9-11.9,11.8l-104,59.2V181.1c0-13.6,7.4-26.2,19.2-32.9
		l101.2-57.1L262.2,210.8z"/>
</g>
</svg>
